<?xml version="1.0" standalone="no"?>
<!DOCTYPE svg PUBLIC "-//W3C//DTD SVG 20010904//EN"
 "http://www.w3.org/TR/2001/REC-SVG-20010904/DTD/svg10.dtd">
<svg version="1.0" xmlns="http://www.w3.org/2000/svg"
 width="261.000000pt" height="261.000000pt" viewBox="0 0 261.000000 261.000000"
 preserveAspectRatio="xMidYMid meet">
<metadata>
Created by potrace 1.11, written by Peter Selinger 2001-2013
</metadata>
<g transform="translate(0.000000,261.000000) scale(0.100000,-0.100000)"
fill="#000000" stroke="none">
<path d="M0 1305 l0 -1305 1305 0 1305 0 0 1305 0 1305 -1305 0 -1305 0 0
-1305z m1223 943 c48 -121 727 -1889 727 -1893 0 -3 -80 -5 -178 -5 l-179 0
-89 252 -90 253 -379 2 -380 3 -79 -228 c-43 -125 -85 -239 -93 -254 l-14 -28
-164 0 c-90 0 -166 3 -168 8 -3 5 443 1177 699 1835 l26 67 178 0 c133 0 179
-3 183 -12z m1257 -1713 l0 -185 -185 0 -185 0 0 185 0 185 185 0 185 0 0
-185z"/>
<path d="M893 1527 l-141 -402 280 -3 c155 -1 283 -1 284 1 4 4 -269 794 -277
801 -3 3 -68 -176 -146 -397z"/>
</g>
</svg>
